<?xml version="1.0" encoding="UTF-8"?>
<svg width="16" height="16" viewBox="0 0 24 24" fill="none" xmlns="http://www.w3.org/2000/svg">
<path fill-rule="evenodd" clip-rule="evenodd" d="M15.946 16.6199C15.572 16.7859 15.124 16.6179 14.956 16.2389L12 9.58988L11.13 11.5449H11.765C12.179 11.5449 12.515 11.8809 12.515 12.2949C12.515 12.7089 12.179 13.0449 11.765 13.0449H10.463L9.043 16.2389C8.918 16.5179 8.644 16.6839 8.357 16.6839C8.255 16.6839 8.151 16.6639 8.052 16.6199C7.674 16.4509 7.504 16.0079 7.672 15.6299L8.821 13.0449H8.357C7.943 13.0449 7.607 12.7089 7.607 12.2949C7.607 11.8809 7.943 11.5449 8.357 11.5449H9.488L11.314 7.43888C11.435 7.16888 11.704 6.99388 12 6.99388C12.296 6.99388 12.564 7.16888 12.685 7.43888L16.327 15.6299C16.495 16.0089 16.325 16.4509 15.946 16.6199ZM16.217 2.50488H7.782C4.623 2.50488 2.5 4.72688 2.5 8.03488V15.9739C2.5 19.2819 4.623 21.5049 7.782 21.5049H16.216C19.376 21.5049 21.5 19.2819 21.5 15.9739V8.03488C21.5 4.72688 19.377 2.50488 16.217 2.50488Z" fill="#FFD700"></path>
</svg>